<svg width="430" height="1386" viewBox="0 0 430 1386" fill="none" xmlns="http://www.w3.org/2000/svg">
<g clip-path="url(#clip0_265_3068)">
<rect width="430" height="1386" fill="#02021D"/>
<path d="M0 4.00001C0 1.23858 2.23858 -1 5 -1H425C427.761 -1 430 1.23858 430 4V301C430 303.761 427.761 306 425 306H5C2.23858 306 0 303.761 0 301V4.00001Z" fill="#08082F"/>
<path d="M472 373.5C472 427.348 354.251 471 209 471C63.7491 471 -54 427.348 -54 373.5C-54 319.652 63.7491 276 209 276C354.251 276 472 319.652 472 373.5Z" fill="#02021D"/>
<circle cx="296" cy="98" r="1" fill="#EFEFEF"/>
<circle cx="360" cy="57" r="1" fill="#EFEFEF"/>
<circle cx="129" cy="168" r="1" fill="#EFEFEF"/>
<circle cx="173" cy="21" r="1" fill="#EFEFEF"/>
<circle cx="33" cy="23" r="1" fill="#EFEFEF"/>
<circle cx="104" cy="103" r="1" fill="#EFEFEF"/>
<circle cx="86" cy="40" r="1" fill="#EFEFEF"/>
<circle cx="6" cy="92" r="1" fill="#EFEFEF"/>
<circle cx="243" cy="13" r="1" fill="#EFEFEF"/>
<circle cx="186" cy="188" r="1" fill="#EFEFEF"/>
<circle cx="38" cy="147" r="1" fill="#EFEFEF"/>
<circle cx="11" cy="226" r="1" fill="#EFEFEF"/>
<circle cx="85" cy="218" r="1" fill="#EFEFEF"/>
<circle cx="167" cy="239" r="1" fill="#EFEFEF"/>
<circle cx="116" cy="257" r="1" fill="#EFEFEF"/>
<circle cx="134" cy="229" r="1" fill="#EFEFEF"/>
<circle cx="33" cy="242" r="1" fill="#EFEFEF"/>
<circle cx="281" cy="244" r="1" fill="#EFEFEF"/>
<circle cx="358" cy="178" r="1" fill="#EFEFEF"/>
<circle cx="369" cy="234" r="1" fill="#EFEFEF"/>
<circle cx="335" cy="135" r="1" fill="#EFEFEF"/>
<circle cx="418" cy="227" r="1" fill="#EFEFEF"/>
<circle cx="298" cy="208" r="1" fill="#EFEFEF"/>
<circle cx="405" cy="128" r="1" fill="#EFEFEF"/>
<circle cx="424" cy="22" r="1" fill="#EFEFEF"/>
<circle cx="407" cy="64" r="1" fill="#EFEFEF"/>
<circle cx="275" cy="158" r="1" fill="#EFEFEF"/>
<circle cx="243" cy="206" r="1" fill="#EFEFEF"/>
<circle cx="194" cy="138" r="1" fill="#EFEFEF"/>
<circle cx="228" cy="107" r="1" fill="#EFEFEF"/>
<circle cx="251" cy="59" r="1" fill="#EFEFEF"/>
<circle cx="339" cy="14" r="1" fill="#EFEFEF"/>
<circle cx="318" cy="75" r="1" fill="#EFEFEF"/>
<circle cx="302" cy="46" r="1" fill="#EFEFEF"/>
<path d="M395.689 89.834C397.247 89.834 398.735 90.1418 400.095 90.701C401.213 86.382 405.071 83.1975 409.66 83.1975C410.506 83.1975 411.328 83.3082 412.108 83.5099C413.874 78.551 418.538 75.0127 424.013 75.0127C430.111 75.0127 435.201 79.4077 436.402 85.258C437.777 84.5927 439.315 84.2202 440.942 84.2202C446.689 84.2202 451.363 88.8769 451.546 94.6869C452.357 94.4354 453.223 94.304 454.113 94.304C459.019 94.304 463 98.3556 463 103.36C463 108.364 459.019 112.416 454.113 112.416C452.139 112.416 450.314 111.761 448.841 110.652C447.12 115.067 442.891 118.191 437.945 118.191C434.71 118.191 431.787 116.856 429.666 114.704C426.703 118.454 422.163 120.852 417.074 120.852C410.733 120.852 405.254 117.134 402.603 111.721C400.654 113.147 398.27 113.988 395.689 113.988C389.141 113.988 383.833 108.581 383.833 101.909C383.833 95.2367 389.141 89.8293 395.689 89.8293V89.834Z" fill="#BFBFBF"/>
<circle cx="73.8889" cy="73.8889" r="73.8889" transform="matrix(-1 0 0 1 440.569 88.6458)" fill="#514FC2"/>
<path d="M395.497 129.462C395.497 129.462 395.429 141.175 384.279 141.086C373.129 140.997 373.198 129.285 373.198 129.285" stroke="#02021D" stroke-width="4.83333" stroke-linecap="round"/>
<path d="M352.843 129.462C352.843 129.462 352.774 141.175 341.624 141.086C330.475 140.997 330.543 129.285 330.543 129.285" stroke="#02021D" stroke-width="4.83333" stroke-linecap="round"/>
<path d="M377.764 158.279C377.764 158.279 377.711 166.02 364.715 165.932C351.719 165.843 351.772 158.101 351.772 158.101" stroke="#02021D" stroke-width="4.83333" stroke-linecap="round"/>
<path d="M271 205.143C271 210.747 276.255 215.289 282.739 215.289C282.965 215.289 283.191 215.289 283.434 215.275C284.728 215.205 285.973 214.967 287.121 214.563C287.833 215.289 288.608 215.96 289.449 216.575C292.716 218.951 296.936 220.391 301.544 220.391C305.587 220.391 309.338 219.287 312.41 217.399C313.316 217.665 314.254 217.861 315.208 218.001C316.243 218.154 317.294 218.224 318.377 218.224C321.773 218.224 324.958 217.442 327.723 216.086C328.919 215.499 330.019 214.8 331.038 214.003C333.059 215.415 335.63 216.267 338.427 216.267C343.003 216.267 346.965 214.003 348.905 210.705C349.714 209.321 350.167 207.77 350.167 206.121C350.167 200.517 344.912 195.974 338.427 195.974C338.379 195.974 338.33 195.974 338.282 195.974C337.069 187.966 329.178 181.789 319.605 181.789C313.542 181.789 308.142 184.277 304.714 188.134C303.679 187.98 302.628 187.91 301.544 187.91C294.915 187.91 289.094 190.873 285.746 195.346C284.792 195.122 283.774 195.01 282.739 195.01C276.498 195.01 271.388 199.217 271.016 204.542C271.016 204.737 271 204.933 271 205.143Z" fill="#BFBFBF"/>
<path d="M52.19 345.258C51.6808 345.217 51.285 344.783 51.282 344.243L51.0095 298.639C51.0055 298.062 51.4537 297.578 52.0095 297.563C52.5593 297.543 53.0224 298 53.0261 298.58L53.2965 344.183C53.3004 344.76 52.8522 345.245 52.2964 345.259C52.2593 345.261 52.2246 345.26 52.19 345.258Z" fill="#BFBFBF"/>
<path d="M60.5835 344.916C59.9405 344.865 59.386 344.384 59.2517 343.693L57.2647 333.497C57.0995 332.649 57.6295 331.806 58.4498 331.616C59.2656 331.427 60.0652 331.959 60.2304 332.806L62.2174 343.003C62.3828 343.848 61.8528 344.691 61.0325 344.881C60.8813 344.917 60.7324 344.928 60.5835 344.916Z" fill="#666666"/>
<path d="M58.6489 334.197C58.2195 334.163 57.8499 333.842 57.7609 333.382L51.0274 298.84C50.918 298.274 51.2712 297.714 51.8182 297.586C52.3652 297.457 52.8945 297.814 53.0061 298.379L59.7376 332.919C59.8468 333.486 59.4936 334.046 58.9468 334.173C58.8467 334.196 58.746 334.204 58.6489 334.197Z" fill="#BFBFBF"/>
<path d="M34.4662 347.025C34.3324 347.014 34.1962 346.983 34.066 346.934C33.2876 346.637 32.9016 345.734 33.2051 344.919L37.4329 333.541C37.7342 332.726 38.6155 332.305 39.3896 332.601C40.168 332.898 40.554 333.802 40.2506 334.617L36.0251 345.992C35.7718 346.669 35.1243 347.077 34.4662 347.025Z" fill="#666666"/>
<path d="M38.744 335.124C38.6534 335.117 38.5638 335.099 38.4757 335.064C37.9553 334.867 37.6993 334.266 37.9011 333.721L51.0766 298.251C51.2783 297.706 51.8718 297.432 52.3819 297.624C52.9023 297.821 53.1583 298.423 52.9565 298.968L39.781 334.437C39.6141 334.89 39.1799 335.159 38.744 335.124Z" fill="#BFBFBF"/>
<path d="M55.4208 295.998L55.1711 298.629C55.1255 299.11 54.7707 299.573 54.1232 299.89C52.8345 300.525 50.8515 300.368 49.7017 299.54C49.1243 299.118 48.8742 298.615 48.9198 298.134L48.9134 298.134L49.1631 295.502L55.4208 295.998Z" fill="#666666"/>
<path d="M54.3757 297.252C53.0847 297.889 51.1059 297.732 49.9521 296.901C48.8004 296.07 48.9136 294.878 50.2046 294.241C51.4956 293.603 53.4765 293.76 54.6282 294.591C55.7798 295.422 55.6667 296.614 54.3757 297.252Z" fill="#666666"/>
<path d="M57.2072 292.389L56.843 296.226C56.7766 296.926 56.258 297.602 55.314 298.066C53.4371 298.99 50.5455 298.76 48.8706 297.556C48.0291 296.939 47.664 296.205 47.7304 295.504L47.7218 295.503L48.0859 291.667L57.2072 292.389Z" fill="#BFBFBF"/>
<path d="M55.6838 294.218C53.802 295.148 50.9148 294.919 49.2362 293.707C47.5576 292.495 47.7223 290.76 49.6042 289.83C51.486 288.9 54.3732 289.129 56.0518 290.341C57.7304 291.553 57.5657 293.288 55.6838 294.218Z" fill="#666666"/>
<mask id="mask0_265_3068" style="mask-type:luminance" maskUnits="userSpaceOnUse" x="49" y="342" width="7" height="19">
<path d="M51.1626 342.046L55.9074 342.398L54.0055 360.088L49.2606 359.736L51.1626 342.046Z" fill="white"/>
</mask>
<g mask="url(#mask0_265_3068)">
<path d="M52.0848 359.857C51.3595 359.803 50.8013 359.156 50.8117 358.343L50.9659 344.261C50.9762 343.39 51.6302 342.659 52.4267 342.627C53.2231 342.616 53.8631 343.273 53.8531 344.142L53.6986 358.226C53.6883 359.096 53.0343 359.828 52.2378 359.859C52.1859 359.86 52.1341 359.861 52.0848 359.857Z" fill="#666666"/>
</g>
<mask id="mask1_265_3068" style="mask-type:luminance" maskUnits="userSpaceOnUse" x="71" y="264" width="14" height="9">
<path d="M72.6489 264.764L84.9233 265.644L84.1829 272.277L71.9084 271.397L72.6489 264.764Z" fill="white"/>
</mask>
<g mask="url(#mask1_265_3068)">
<path d="M72.3269 270.895L81.8617 265.994C82.6606 265.584 83.691 265.723 84.7584 266.511L75.2236 271.412C74.1566 270.621 73.1262 270.482 72.3269 270.895Z" fill="#666666"/>
</g>
<mask id="mask2_265_3068" style="mask-type:luminance" maskUnits="userSpaceOnUse" x="74" y="265" width="15" height="18">
<path d="M75.9976 265.761L88.9396 266.695L87.145 282.782L74.203 281.848L75.9976 265.761Z" fill="white"/>
</mask>
<g mask="url(#mask2_265_3068)">
<path d="M86.5832 277.083L77.1582 281.935C77.9399 281.533 78.5025 280.594 78.6596 279.208C78.9758 276.442 77.5357 272.938 75.4313 271.375L84.8566 266.52C86.9607 268.086 88.4036 271.587 88.0871 274.356C87.9278 275.74 87.3652 276.679 86.5832 277.083Z" fill="#666666"/>
</g>
<path d="M75.252 271.337C77.4287 272.909 78.966 276.405 78.6977 279.151C78.4276 281.915 76.457 282.878 74.278 281.303C72.1133 279.74 70.5732 276.247 70.8459 273.483C71.1119 270.734 73.0873 269.774 75.252 271.337Z" fill="#BFBFBF"/>
<path d="M68.82 273.515L72.024 271.891C72.7166 271.545 73.6209 271.673 74.565 272.357L71.361 273.981C70.417 273.297 69.5126 273.169 68.82 273.515Z" fill="#666666"/>
<path d="M76.2727 281.47L73.0685 283.096C73.7532 282.752 74.235 281.949 74.3506 280.759C74.5821 278.374 73.2498 275.343 71.3612 273.981L74.5652 272.357C76.4537 273.719 77.7886 276.75 77.5548 279.133C77.439 280.325 76.9572 281.129 76.2727 281.47Z" fill="#666666"/>
<path d="M71.3613 273.981C73.2499 275.343 74.5822 278.374 74.3507 280.759C74.1181 283.155 72.4062 283.989 70.5154 282.624C68.6391 281.268 67.3068 278.238 67.5393 275.842C67.7731 273.459 69.4825 272.625 71.3613 273.981Z" fill="#BFBFBF"/>
<path d="M74.3529 280.761C74.2412 281.938 73.7588 282.747 73.0813 283.097L47.1169 296.185C47.81 295.86 48.2952 295.049 48.4089 293.851C48.6338 291.481 47.3145 288.449 45.4071 287.069C44.4651 286.391 43.5747 286.278 42.8771 286.623L68.8231 273.512C69.521 273.164 70.4295 273.303 71.374 273.981C73.2605 275.338 74.5801 278.367 74.3529 280.761Z" fill="#BFBFBF"/>
<path d="M45.414 287.078C47.3048 288.443 48.6372 291.473 48.4059 293.856C48.1705 296.255 46.4614 297.086 44.5703 295.724C42.694 294.368 41.3591 291.337 41.5945 288.939C41.8258 286.556 43.5377 285.722 45.414 287.078Z" fill="#B4B2E0"/>
<path d="M39.6686 288.238L42.8728 286.612C43.5677 286.269 44.4695 286.396 45.4138 287.077L42.2098 288.701C41.2655 288.02 40.3637 287.893 39.6686 288.238Z" fill="#666666"/>
<path d="M47.1211 296.193L43.9171 297.817C44.6041 297.476 45.0834 296.673 45.1992 295.48C45.433 293.097 44.1007 290.067 42.2098 288.702L45.4138 287.078C47.3047 288.443 48.637 291.473 48.4057 293.856C48.2876 295.046 47.8081 295.852 47.1211 296.193Z" fill="#666666"/>
<path d="M42.21 288.702C44.1008 290.067 45.4331 293.098 45.1993 295.48C44.9665 297.879 43.2549 298.711 41.3663 297.348C39.49 295.992 38.1551 292.962 38.3879 290.563C38.6218 288.18 40.3337 287.346 42.21 288.702Z" fill="#BFBFBF"/>
<path d="M44.2866 295.328C44.187 296.377 43.7778 297.064 43.1802 297.355L33.2605 302.197C33.3231 302.16 33.3883 302.122 33.4371 302.041C33.4575 302.042 33.4593 302.024 33.4817 302.004C33.6135 301.886 33.7295 301.746 33.806 301.562C33.9034 301.402 33.9844 301.197 34.0451 300.991C34.1235 300.786 34.1678 300.536 34.192 300.281C34.387 298.227 33.2373 295.598 31.6022 294.432C30.9362 293.957 30.3033 293.782 29.7651 293.907C29.6836 293.901 29.6204 293.917 29.5598 293.934L39.5019 289.072C40.099 288.759 40.8803 288.885 41.6968 289.479C43.3319 290.644 44.4816 293.273 44.2866 295.328Z" fill="#666666"/>
<path d="M29.7654 293.908C29.6614 293.92 29.5375 293.953 29.4297 294.005C29.4725 293.987 29.5153 293.97 29.5599 293.933C29.6205 293.917 29.6838 293.901 29.7654 293.908Z" fill="#666666"/>
<path d="M33.0877 302.285C33.2161 302.232 33.3233 302.159 33.4373 302.041C33.3885 302.121 33.3233 302.159 33.2606 302.196C33.2161 302.232 33.1509 302.269 33.0877 302.285Z" fill="#666666"/>
<path d="M34.1924 300.282C34.1682 300.536 34.124 300.786 34.0455 300.991C33.9848 301.197 33.9038 301.402 33.8064 301.563C33.7113 301.726 33.6139 301.887 33.4821 302.004C33.4597 302.024 33.4579 302.042 33.4376 302.041C33.3887 302.122 33.3236 302.16 33.2609 302.198C33.2164 302.234 33.1512 302.272 33.088 302.288C32.4889 302.623 31.7102 302.497 30.8733 301.902C29.238 300.739 28.0885 298.107 28.2855 296.031C28.4035 295.004 28.8147 294.297 29.4301 294.007C29.4729 293.989 29.5157 293.971 29.5602 293.934C29.6208 293.918 29.684 293.901 29.7655 293.908C30.3038 293.782 30.9366 293.958 31.6026 294.433C33.2377 295.598 34.3874 298.227 34.1924 300.282Z" fill="#BFBFBF"/>
<path d="M26.4844 295.91L29.0279 294.619C29.5799 294.347 30.2944 294.447 31.0464 294.99L28.5032 296.279C27.751 295.738 27.0342 295.636 26.4844 295.91Z" fill="#666666"/>
<path d="M32.4001 302.226L29.8569 303.515C30.401 303.245 30.7827 302.605 30.875 301.659C31.0595 299.769 30.0018 297.361 28.5027 296.278L31.0459 294.989C32.5451 296.072 33.603 298.477 33.4183 300.37C33.3259 301.316 32.9442 301.956 32.4001 302.226Z" fill="#666666"/>
<path d="M28.5034 296.278C30.0025 297.361 31.0602 299.769 30.8757 301.658C30.69 303.562 29.3308 304.223 27.8314 303.143C26.3419 302.066 25.2814 299.661 25.4674 297.755C25.6519 295.865 27.0114 295.201 28.5034 296.278Z" fill="#BFBFBF"/>
<path d="M20.7394 301.721L30.393 296.951L29.3584 307.853L20.7394 301.721Z" fill="#666666"/>
<mask id="mask3_265_3068" style="mask-type:luminance" maskUnits="userSpaceOnUse" x="16" y="292" width="15" height="11">
<path d="M17.7012 292.97L30.976 293.923L29.9759 302.86L16.7011 301.908L17.7012 292.97Z" fill="white"/>
</mask>
<g mask="url(#mask3_265_3068)">
<path d="M17.0112 299.07L26.6631 294.15L30.3491 296.875L20.6948 301.795L17.0112 299.07Z" fill="#666666"/>
</g>
<path d="M25.8019 293.714L25.3988 297.961C25.3752 298.21 25.1788 298.467 24.8312 298.64C24.1254 298.99 23.0501 298.905 22.4208 298.449C22.1084 298.224 21.9659 297.94 21.9895 297.691L22.3926 293.444L25.8019 293.714Z" fill="#666666"/>
<path d="M26.5526 289.238L26.0728 294.294C26.0446 294.59 25.8129 294.895 25.4006 295.1C24.5573 295.52 23.2782 295.418 22.5264 294.873C22.159 294.606 21.9881 294.269 22.0163 293.972L22.4961 288.917L26.5526 289.238Z" fill="#BFBFBF"/>
<path d="M26.5526 289.238L26.3954 290.895C26.317 290.963 26.2169 291.017 26.1041 291.069C25.0744 291.586 23.5099 291.462 22.5929 290.791C22.4916 290.722 22.4006 290.653 22.3388 290.573L22.4961 288.917L26.5526 289.238Z" fill="#666666"/>
<path d="M25.8775 290.05C25.0398 290.464 23.7556 290.362 23.0084 289.823C22.2612 289.283 22.3345 288.511 23.1722 288.097C24.0099 287.682 25.2941 287.784 26.0413 288.324C26.7885 288.864 26.7152 289.635 25.8775 290.05Z" fill="#666666"/>
<path d="M27.2067 287.273L27.0144 289.298C26.9792 289.67 26.692 290.045 26.1782 290.293C25.1485 290.809 23.5839 290.685 22.6669 290.014C22.2074 289.689 21.9952 289.275 22.0304 288.904L22.2227 286.878L27.2067 287.273Z" fill="#BFBFBF"/>
<path d="M26.3747 288.27C25.346 288.776 23.7713 288.651 22.8532 287.991C21.938 287.328 22.0279 286.382 23.0543 285.873C24.083 285.367 25.6577 285.491 26.5757 286.152C27.4909 286.815 27.4011 287.761 26.3747 288.27Z" fill="#666666"/>
<path d="M25.9713 287.979C25.1929 288.364 24.0004 288.269 23.3061 287.768C22.6117 287.267 22.6796 286.551 23.4583 286.164C24.2367 285.78 25.4292 285.874 26.1236 286.375C26.8177 286.879 26.7497 287.595 25.9713 287.979Z" fill="#BFBFBF"/>
<path d="M21.5 168.222C21.3757 168.62 21.2296 169.01 21.0616 169.39C20.8943 169.77 20.706 170.14 20.4973 170.496C20.2886 170.854 20.0612 171.198 19.815 171.526C19.5681 171.856 19.3039 172.169 19.0233 172.465C18.742 172.762 18.445 173.04 18.1332 173.3C17.8205 173.561 17.4954 173.801 17.1562 174.021C16.8178 174.241 16.4685 174.439 16.1074 174.617C15.7464 174.793 15.3775 174.947 15 175.078C15.3775 175.21 15.7464 175.364 16.1074 175.541C16.4685 175.718 16.8178 175.916 17.1562 176.136C17.4954 176.356 17.8205 176.596 18.1332 176.857C18.445 177.117 18.742 177.395 19.0233 177.692C19.3039 177.988 19.5681 178.301 19.815 178.631C20.0612 178.96 20.2886 179.303 20.4973 179.66C20.706 180.017 20.8943 180.386 21.0616 180.767C21.2296 181.147 21.3757 181.537 21.5 181.935C21.6243 181.537 21.7704 181.147 21.9384 180.767C22.1057 180.386 22.294 180.017 22.5027 179.66C22.7114 179.303 22.9388 178.96 23.185 178.631C23.4319 178.301 23.6961 177.988 23.9767 177.692C24.258 177.395 24.555 177.117 24.8668 176.857C25.1795 176.597 25.5046 176.357 25.843 176.136C26.1822 175.916 26.5315 175.718 26.8926 175.541C27.2529 175.364 27.6225 175.21 28 175.078C27.6225 174.947 27.2529 174.793 26.8926 174.616C26.5315 174.439 26.1822 174.241 25.843 174.021C25.5046 173.801 25.1795 173.561 24.8668 173.3C24.555 173.04 24.258 172.762 23.9767 172.465C23.6961 172.169 23.4319 171.856 23.185 171.526C22.9388 171.197 22.7114 170.854 22.5027 170.496C22.294 170.14 22.1057 169.77 21.9384 169.39C21.7704 169.01 21.6243 168.62 21.5 168.222Z" fill="#F7B538"/>
<path d="M91.5 128.509C91.3757 128.909 91.2296 129.301 91.0616 129.684C90.8943 130.067 90.706 130.438 90.4973 130.797C90.2886 131.157 90.0612 131.502 89.815 131.833C89.5681 132.165 89.3039 132.479 89.0233 132.778C88.742 133.076 88.445 133.356 88.1332 133.618C87.8205 133.88 87.4954 134.122 87.1562 134.342C86.8178 134.564 86.4685 134.764 86.1074 134.942C85.7464 135.119 85.3775 135.274 85 135.407C85.3775 135.539 85.7464 135.694 86.1074 135.872C86.4685 136.05 86.8178 136.249 87.1562 136.471C87.4954 136.692 87.8205 136.933 88.1332 137.196C88.445 137.457 88.742 137.737 89.0233 138.036C89.3039 138.334 89.5681 138.649 89.815 138.98C90.0612 139.312 90.2886 139.657 90.4973 140.016C90.706 140.375 90.8943 140.747 91.0616 141.13C91.2296 141.512 91.3757 141.904 91.5 142.305C91.6243 141.904 91.7704 141.512 91.9384 141.13C92.1057 140.747 92.294 140.375 92.5027 140.016C92.7114 139.657 92.9388 139.312 93.185 138.98C93.4319 138.649 93.6961 138.334 93.9767 138.036C94.258 137.737 94.555 137.457 94.8668 137.196C95.1795 136.934 95.5046 136.693 95.843 136.471C96.1822 136.249 96.5315 136.05 96.8926 135.872C97.2529 135.694 97.6225 135.539 98 135.407C97.6225 135.274 97.2529 135.119 96.8926 134.941C96.5315 134.764 96.1822 134.564 95.843 134.342C95.5046 134.122 95.1795 133.88 94.8668 133.618C94.555 133.356 94.258 133.076 93.9767 132.778C93.6961 132.479 93.4319 132.165 93.185 131.833C92.9388 131.502 92.7114 131.157 92.5027 130.797C92.294 130.438 92.1057 130.067 91.9384 129.684C91.7704 129.301 91.6243 128.909 91.5 128.509Z" fill="#F7B538"/>
<path d="M295.5 66.7401C295.376 67.1407 295.23 67.5329 295.062 67.9152C294.894 68.2983 294.706 68.6697 294.497 69.0286C294.289 69.3884 294.061 69.734 293.815 70.0647C293.568 70.3961 293.304 70.7109 293.023 71.0091C292.742 71.308 292.445 71.5879 292.133 71.8494C291.821 72.1117 291.495 72.3532 291.156 72.5739C290.818 72.7954 290.468 72.9953 290.107 73.1735C289.746 73.3509 289.377 73.5058 289 73.6382C289.377 73.7707 289.746 73.9256 290.107 74.1038C290.468 74.2812 290.818 74.481 291.156 74.7026C291.495 74.9233 291.821 75.1648 292.133 75.4271C292.445 75.6886 292.742 75.9684 293.023 76.2674C293.304 76.5656 293.568 76.8804 293.815 77.2118C294.061 77.5433 294.289 77.8881 294.497 78.2478C294.706 78.6068 294.894 78.9782 295.062 79.3613C295.23 79.7436 295.376 80.1358 295.5 80.5364C295.624 80.1358 295.77 79.7436 295.938 79.3613C296.106 78.9782 296.294 78.6068 296.503 78.2478C296.711 77.8881 296.939 77.5433 297.185 77.2118C297.432 76.8804 297.696 76.5656 297.977 76.2674C298.258 75.9684 298.555 75.6886 298.867 75.4271C299.179 75.1656 299.505 74.9241 299.843 74.7026C300.182 74.481 300.532 74.2812 300.893 74.1038C301.253 73.9256 301.623 73.7707 302 73.6382C301.623 73.5058 301.253 73.3509 300.893 73.1727C300.532 72.9953 300.182 72.7954 299.843 72.5739C299.505 72.3532 299.179 72.1117 298.867 71.8494C298.555 71.5879 298.258 71.308 297.977 71.0091C297.696 70.7109 297.432 70.3961 297.185 70.0647C296.939 69.7332 296.711 69.3884 296.503 69.0286C296.294 68.6697 296.106 68.2983 295.938 67.9152C295.77 67.5329 295.624 67.1407 295.5 66.7401Z" fill="#F7B538"/>
<path d="M259 140.794C258.828 141.352 258.626 141.897 258.393 142.429C258.161 142.963 257.901 143.479 257.612 143.979C257.323 144.48 257.008 144.961 256.667 145.421C256.325 145.882 255.959 146.32 255.571 146.735C255.181 147.151 254.77 147.54 254.338 147.904C253.905 148.269 253.455 148.606 252.986 148.913C252.517 149.221 252.033 149.499 251.533 149.747C251.033 149.994 250.523 150.21 250 150.394C250.523 150.578 251.033 150.794 251.533 151.042C252.033 151.288 252.517 151.567 252.986 151.875C253.455 152.182 253.905 152.518 254.338 152.883C254.77 153.247 255.181 153.637 255.571 154.053C255.959 154.467 256.325 154.906 256.667 155.367C257.008 155.828 257.323 156.308 257.612 156.809C257.901 157.308 258.161 157.825 258.393 158.358C258.626 158.89 258.828 159.436 259 159.993C259.172 159.436 259.374 158.89 259.607 158.358C259.839 157.825 260.099 157.308 260.388 156.809C260.677 156.308 260.992 155.828 261.333 155.367C261.675 154.906 262.041 154.467 262.429 154.053C262.819 153.637 263.23 153.247 263.662 152.883C264.095 152.519 264.545 152.183 265.013 151.875C265.483 151.567 265.967 151.288 266.467 151.042C266.965 150.794 267.477 150.578 268 150.394C267.477 150.21 266.965 149.994 266.467 149.746C265.967 149.499 265.483 149.221 265.013 148.913C264.545 148.606 264.095 148.269 263.662 147.904C263.23 147.54 262.819 147.151 262.429 146.735C262.041 146.32 261.675 145.882 261.333 145.421C260.992 144.959 260.677 144.48 260.388 143.979C260.099 143.479 259.839 142.963 259.607 142.429C259.374 141.897 259.172 141.352 259 140.794Z" fill="#F7B538"/>
<path d="M387 14.8576C386.828 15.4122 386.626 15.9553 386.393 16.4846C386.161 17.0151 385.901 17.5294 385.612 18.0264C385.323 18.5245 385.008 19.003 384.667 19.4608C384.325 19.9198 383.959 20.3557 383.571 20.7685C383.181 21.1824 382.77 21.5699 382.338 21.932C381.905 22.2952 381.455 22.6296 380.986 22.9352C380.517 23.2419 380.033 23.5187 379.533 23.7654C379.033 24.011 378.523 24.2255 378 24.4089C378.523 24.5922 379.033 24.8067 379.533 25.0535C380.033 25.2991 380.517 25.5758 380.986 25.8826C381.455 26.1881 381.905 26.5225 382.338 26.8858C382.77 27.2479 383.181 27.6353 383.571 28.0493C383.959 28.4621 384.325 28.898 384.667 29.3569C385.008 29.8159 385.323 30.2933 385.612 30.7914C385.901 31.2884 386.161 31.8027 386.393 32.3331C386.626 32.8624 386.828 33.4055 387 33.9602C387.172 33.4055 387.374 32.8624 387.607 32.3331C387.839 31.8027 388.099 31.2884 388.388 30.7914C388.677 30.2933 388.992 29.8159 389.333 29.3569C389.675 28.898 390.041 28.4621 390.429 28.0493C390.819 27.6353 391.23 27.2479 391.662 26.8858C392.095 26.5237 392.545 26.1893 393.013 25.8826C393.483 25.5758 393.967 25.2991 394.467 25.0535C394.965 24.8067 395.477 24.5922 396 24.4089C395.477 24.2255 394.965 24.0111 394.467 23.7643C393.967 23.5187 393.483 23.2419 393.013 22.9352C392.545 22.6296 392.095 22.2952 391.662 21.932C391.23 21.5699 390.819 21.1824 390.429 20.7685C390.041 20.3557 389.675 19.9198 389.333 19.4608C388.992 19.0019 388.677 18.5245 388.388 18.0264C388.099 17.5294 387.839 17.0151 387.607 16.4846C387.374 15.9553 387.172 15.4122 387 14.8576Z" fill="#F7B538"/>
<path d="M68 -4.57126C67.8471 -4.07824 67.6672 -3.59546 67.4604 -3.12499C67.2545 -2.65349 67.0227 -2.19634 66.7659 -1.75457C66.5091 -1.31177 66.2292 -0.886396 65.9262 -0.479472C65.6222 -0.071524 65.2971 0.315925 64.9518 0.682874C64.6055 1.05085 64.24 1.39525 63.8562 1.7171C63.4714 2.03997 63.0713 2.33722 62.6538 2.60884C62.2373 2.88149 61.8074 3.12749 61.363 3.34684C60.9186 3.56516 60.4646 3.75581 60 3.91879C60.4646 4.08176 60.9186 4.27241 61.363 4.49176C61.8074 4.71008 62.2373 4.95608 62.6538 5.22873C63.0713 5.50036 63.4714 5.79761 63.8562 6.12048C64.24 6.44233 64.6055 6.78673 64.9518 7.1547C65.2971 7.52165 65.6222 7.9091 65.9262 8.31705C66.2292 8.725 66.5091 9.14934 66.7659 9.59214C67.0227 10.0339 67.2545 10.4911 67.4604 10.9626C67.6672 11.433 67.8471 11.9158 68 12.4088C68.1529 11.9158 68.3328 11.433 68.5396 10.9626C68.7455 10.4911 68.9773 10.0339 69.2341 9.59214C69.4909 9.14934 69.7708 8.725 70.0738 8.31705C70.3778 7.9091 70.7029 7.52165 71.0482 7.1547C71.3945 6.78673 71.76 6.44233 72.1438 6.12048C72.5286 5.79863 72.9287 5.50138 73.3452 5.22873C73.7627 4.95608 74.1926 4.71008 74.637 4.49176C75.0804 4.27241 75.5354 4.08176 76 3.91879C75.5354 3.75581 75.0804 3.56516 74.637 3.34581C74.1926 3.12749 73.7627 2.88149 73.3452 2.60884C72.9287 2.33722 72.5286 2.03997 72.1438 1.7171C71.76 1.39525 71.3945 1.05085 71.0482 0.682874C70.7029 0.315925 70.3778 -0.071524 70.0738 -0.479472C69.7708 -0.887421 69.4909 -1.31177 69.2341 -1.75457C68.9773 -2.19634 68.7455 -2.65349 68.5396 -3.12499C68.3328 -3.59546 68.1529 -4.07824 68 -4.57126Z" fill="#F7B538"/>
<path d="M415 191.078C414.751 191.879 414.459 192.663 414.123 193.428C413.789 194.194 413.412 194.937 412.995 195.655C412.577 196.374 412.122 197.066 411.63 197.727C411.136 198.39 410.608 199.019 410.047 199.616C409.484 200.214 408.89 200.773 408.266 201.296C407.641 201.821 406.991 202.304 406.312 202.745C405.636 203.189 404.937 203.588 404.215 203.945C403.493 204.3 402.755 204.609 402 204.874C402.755 205.139 403.493 205.449 404.215 205.805C404.937 206.16 405.636 206.56 406.312 207.003C406.991 207.444 407.641 207.927 408.266 208.452C408.89 208.975 409.484 209.535 410.047 210.133C410.608 210.729 411.136 211.358 411.63 212.021C412.122 212.684 412.577 213.374 412.995 214.093C413.412 214.811 413.789 215.554 414.123 216.32C414.459 217.085 414.751 217.869 415 218.67C415.249 217.869 415.541 217.085 415.877 216.32C416.211 215.554 416.588 214.811 417.005 214.093C417.423 213.374 417.878 212.684 418.37 212.021C418.864 211.358 419.392 210.729 419.953 210.133C420.516 209.535 421.11 208.975 421.734 208.452C422.359 207.929 423.009 207.446 423.686 207.003C424.364 206.56 425.063 206.16 425.785 205.805C426.506 205.449 427.245 205.139 428 204.874C427.245 204.609 426.506 204.3 425.785 203.943C425.063 203.588 424.364 203.189 423.686 202.745C423.009 202.304 422.359 201.821 421.734 201.296C421.11 200.773 420.516 200.214 419.953 199.616C419.392 199.019 418.864 198.39 418.37 197.727C417.878 197.064 417.423 196.374 417.005 195.655C416.588 194.937 416.211 194.194 415.877 193.428C415.541 192.663 415.249 191.879 415 191.078Z" fill="#F7B538"/>
</g>
<defs>
<clipPath id="clip0_265_3068">
<rect width="430" height="1386" fill="white"/>
</clipPath>
</defs>
</svg>
