<svg width="430" height="955" viewBox="0 0 430 955" fill="none" xmlns="http://www.w3.org/2000/svg">
<g clip-path="url(#clip0_211_2940)">
<rect width="430" height="955" fill="#02021D"/>
<rect width="430" height="950" rx="5" fill="#08082F"/>
<ellipse cx="264.068" cy="373.715" rx="398.397" ry="260.509" transform="rotate(-8.36809 264.068 373.715)" fill="#18306D"/>
<ellipse cx="268.502" cy="610.594" rx="360.942" ry="263.875" transform="rotate(-8.36809 268.502 610.594)" fill="#514FC2"/>
<ellipse cx="305.391" cy="733.422" rx="258.18" ry="179.361" transform="rotate(-8.90568 305.391 733.422)" fill="#35A4DA"/>
<ellipse cx="231.178" cy="855.499" rx="288.355" ry="174.206" transform="rotate(-1.66298 231.178 855.499)" fill="#02021D"/>
<mask id="mask0_211_2940" style="mask-type:luminance" maskUnits="userSpaceOnUse" x="244" y="683" width="166" height="56">
<path d="M247.994 683.452L409.671 700.095L405.75 738.934L244.073 722.291L247.994 683.452Z" fill="white"/>
</mask>
<g mask="url(#mask0_211_2940)">
<path d="M269.569 696.363C269.569 696.363 270.9 687.76 278.072 687.532C285.245 687.301 286.87 693.924 285.928 698.047M254.961 704.684C254.961 704.684 246.656 704.35 246.306 705.329C245.953 706.308 244.449 718.743 244.739 719.88C245.028 721.021 253.144 722.683 253.144 722.683M396.808 737.474C396.808 737.474 405.089 737.499 405.601 736.441C406.111 735.386 407.123 722.9 406.973 721.87C406.823 720.839 398.624 719.475 398.624 719.475M385.3 708.275C385.3 708.275 386.865 699.115 385.852 698.253C384.845 697.391 371.247 696.31 370.6 696.683C369.952 697.059 369.411 706.195 369.411 706.195" fill="#90AEB0"/>
</g>
<path d="M246.85 719.464C247.502 720.073 252.963 720.852 252.963 720.852L253.292 719.022C252.059 719 246.264 718.92 246.85 719.464ZM248.295 706.078C248.274 706.433 254.671 708.326 254.671 708.326L254.448 710.529C254.448 710.529 247.612 709.605 247.894 710.051C248.171 710.5 254.093 711.926 254.093 711.926L253.97 714.627C253.97 714.627 247.004 713.516 247.334 714.188C247.655 714.842 253.512 716.252 253.785 716.318L255.513 706.821C255.513 706.815 248.319 705.73 248.295 706.078ZM253.526 719.025L253.799 716.319C253.799 716.319 253.791 716.319 253.785 716.315L253.292 719.022C253.439 719.025 253.526 719.025 253.526 719.025ZM403.861 723.286C403.209 722.679 397.744 721.306 397.744 721.306L397.407 723.152C398.636 723.275 404.446 723.833 403.861 723.286ZM397.181 723.129L396.959 725.332C396.959 725.332 396.979 725.337 397.01 725.343L397.407 723.152C397.264 723.138 397.181 723.129 397.181 723.129ZM402.549 734.842C402.57 734.487 396.031 733.828 396.031 733.828L396.196 731.201C396.196 731.201 403.279 731.727 403.001 731.278C402.726 730.832 396.556 729.804 396.556 729.804L396.788 727.024C396.788 727.024 403.755 728.133 403.424 727.461C403.113 726.829 397.591 725.481 397.01 725.341L395.192 735.336C395.194 735.339 402.524 735.197 402.549 734.842ZM379.307 706.819L381.837 706.95C381.837 706.95 381.855 706.859 381.888 706.708L379.321 706.62C379.314 706.75 379.307 706.819 379.307 706.819ZM371.897 706.442L374.708 706.73C374.708 706.73 374.713 706.631 374.715 706.46L371.899 706.361C371.9 706.411 371.897 706.442 371.897 706.442ZM378.594 706.874C378.594 706.874 378.602 706.773 378.614 706.597L376.45 706.519L378.594 706.874ZM383.509 699.496C383.385 699.579 382.147 705.455 381.888 706.711L382.966 706.748C382.857 706.549 383.654 699.403 383.509 699.496ZM379.492 698.871C379.102 698.965 378.699 705.207 378.614 706.597L379.321 706.62C379.414 705.387 379.889 698.778 379.492 698.871ZM371.56 697.942C370.985 698.034 370.713 706.325 370.713 706.325L371.901 706.367C371.921 705.516 372.103 697.853 371.56 697.942ZM375.277 698.615C374.994 698.65 374.766 705.07 374.721 706.461L376.45 706.519L375.505 706.364C375.502 706.366 375.595 698.581 375.277 698.615Z" fill="#2B3244"/>
<path d="M263.454 768.494L256.004 765.757C255.983 765.969 255.104 772.07 255.352 772.957C255.6 773.842 259.138 775.172 260.112 774.535C261.083 773.897 263.454 768.494 263.454 768.494Z" fill="#2B3244"/>
<path d="M377.582 785.751C376.788 784.727 377.904 779.341 378.088 778.971L384.394 777.795C384.394 777.795 383.882 785.405 382.84 786.172C381.796 786.936 378.377 786.775 377.582 785.751Z" fill="#2B3244"/>
<path d="M358.181 637.105C357.296 637.711 355.948 638.613 355.002 639.239C355.222 639.545 355.345 639.819 355.27 639.965C355.059 640.394 348.311 645.219 345.857 646.963C346.023 647.271 346.081 647.548 345.967 647.755C345.462 648.675 279.202 695.81 277.999 696.63C275.372 698.421 272.244 693.843 274.682 692.151C274.682 692.151 342.054 644.302 342.831 644.402C342.996 644.424 343.249 644.543 343.543 644.727C345.659 643.181 352.936 637.635 353.211 637.622C353.298 637.618 353.509 637.755 353.764 637.957L353.897 637.86C354.746 637.236 356.106 636.236 356.972 635.627C357.048 635.322 357.255 635.031 357.621 634.838C359.296 633.937 360.779 636.01 359.004 636.896C358.706 637.046 358.432 637.107 358.181 637.105Z" fill="#2B3244"/>
<path d="M345.614 646.524C345.775 646.486 344.873 645.258 344.005 644.39L343.543 644.733C344.478 645.366 345.457 646.556 345.614 646.524Z" fill="#90AEB0"/>
<path d="M354.266 638.141C354.244 637.991 355.343 639.013 355.343 639.013L354.999 639.24C354.833 638.865 354.287 638.288 354.266 638.141Z" fill="#90AEB0"/>
<path d="M357.058 635.98C356.996 635.807 357.251 635.846 357.373 636.024C357.49 636.198 357.976 636.73 357.9 636.809C357.822 636.886 357.199 636.376 357.058 635.98Z" fill="#90AEB0"/>
<path d="M307.908 696.922C342.411 700.643 379.863 705.571 384.947 706.115C395.589 707.259 400.193 709.524 399.908 720.513C399.665 729.865 397.765 754.676 395.24 767.229C392.716 779.785 387.839 779.281 381.732 779.626C375.623 779.971 296.753 770.949 275.45 769.865C254.149 768.778 249.577 764.651 248.515 757.644C247.454 750.637 252.975 709.281 253.932 704.033C256.418 690.401 267.728 692.587 307.908 696.922Z" fill="#514FC2"/>
<path d="M364.678 744.424C364.653 745.02 365.412 742.706 366.723 741.902C368.84 740.609 371.239 741.466 371.239 741.466L371.594 740.902C365.359 740.001 364.707 743.826 364.678 744.424ZM367.998 743.225C366.048 743.673 365.393 745.954 365.414 746.029C365.446 746.395 365.899 745.225 366.398 744.606C367.042 743.804 367.705 743.503 368.093 743.406C368.48 743.312 368.227 743.164 367.998 743.225ZM335.011 738.995C333.012 737.488 331.81 738.096 332.21 738.253C334.425 738.654 336.355 740.351 337.041 742.505C337.156 742.824 337.55 743.039 337.472 742.549C337.395 742.059 337.012 740.505 335.011 738.995Z" fill="#90AEB0"/>
<path d="M379.93 725.409C376.371 726.117 332.966 721.236 329.544 719.757C326.127 718.278 326.808 712.009 330.121 710.803L330.346 711.354C330.346 711.354 330.807 710.721 330.824 710.667C331.383 710.608 332.183 710.59 333.176 710.6L333.614 711.155L334.162 710.623C334.954 710.645 335.839 710.687 336.802 710.739L337.234 711.302L337.597 710.785C338.611 710.846 339.695 710.921 340.841 711.012L341.135 711.353L341.508 711.064C342.362 711.131 343.247 711.207 344.152 711.285C344.211 711.292 344.367 711.637 344.367 711.637L344.715 711.334C345.826 711.432 346.973 711.537 348.143 711.651L348.747 712.637L349.129 711.744C350.09 711.838 351.064 711.938 352.042 712.039L352.483 712.8L353.082 712.147C354.027 712.247 354.978 712.351 355.926 712.455C355.926 712.455 356.207 713.149 356.286 713.195C356.364 713.245 356.741 712.555 356.741 712.555C356.741 712.555 356.745 712.549 356.751 712.544C357.979 712.682 359.203 712.822 360.413 712.964L360.897 713.861L361.254 713.064C362.74 713.242 364.2 713.42 365.602 713.601L366.264 714.355L366.659 713.737C367.938 713.904 369.166 714.068 370.327 714.23L370.992 715.01L371.55 714.405C372.882 714.595 374.113 714.779 375.203 714.954L375.522 715.437L375.919 715.069C377.346 715.305 378.495 715.524 379.298 715.713L379.611 716.355C379.611 716.355 379.997 715.951 379.978 715.89C380.095 715.927 380.207 715.957 380.288 715.989C384.291 717.516 383.488 724.698 379.93 725.409ZM320.122 757.483C319.877 760.288 319.79 762.17 319.951 762.354C320.116 762.538 323.315 763.007 328.144 763.61L329.217 762.539L329.624 763.793C332.244 764.113 335.251 764.465 338.459 764.836L339.032 764.253L339.463 764.949C342.406 765.282 345.498 765.626 348.607 765.969C348.607 765.969 349.15 765.196 349.195 765.338C349.242 765.482 349.633 766.078 349.633 766.078C352.645 766.407 355.656 766.728 358.541 767.034L359.125 766.507L359.581 767.142C363.26 767.528 366.707 767.88 369.649 768.169L370.173 767.72L370.369 768.244C375.466 768.746 378.889 769.046 379.092 768.99C379.286 768.937 379.614 767.175 380.004 764.468C369.118 762.924 322.092 757.965 320.122 757.483Z" fill="#FFF6E1"/>
<path d="M348.645 765.83C348.877 764.098 349.333 761.084 349.678 761.073C350.018 761.062 349.818 764.14 349.67 765.939C349.328 765.9 348.984 765.868 348.645 765.83Z" fill="#18306D"/>
<path d="M328.179 763.47C328.412 761.811 328.867 759.192 329.402 759.223C329.93 759.253 329.796 761.969 329.658 763.653C329.148 763.593 328.655 763.529 328.179 763.47Z" fill="#18306D"/>
<path d="M338.496 764.697C338.842 762.751 339.391 759.963 339.685 759.952C340.001 759.938 339.711 762.968 339.501 764.813C339.164 764.772 338.828 764.734 338.497 764.697L338.496 764.697Z" fill="#18306D"/>
<path d="M369.686 768.03C369.67 766.169 369.693 763.252 370.01 763.287C370.304 763.32 370.39 766.093 370.409 768.103L369.686 768.03Z" fill="#18306D"/>
<path d="M358.578 766.894C358.858 765.186 359.381 762.211 359.689 762.196C360.029 762.179 359.748 765.602 359.618 767.002C359.273 766.964 358.927 766.928 358.578 766.894Z" fill="#18306D"/>
<path d="M365.388 722.629C364.938 722.674 365.433 716.027 365.642 713.465C366.001 713.514 366.351 713.559 366.699 713.601C366.451 716.307 365.826 722.591 365.388 722.629Z" fill="#18306D"/>
<path d="M375.961 714.936C375.676 717.638 375.135 723.054 374.828 723.531C374.346 724.279 375.03 717.255 375.246 714.818C375.49 714.857 375.732 714.896 375.961 714.936Z" fill="#18306D"/>
<path d="M340.313 719.819C340.158 719.084 340.613 713.24 340.855 710.85C341.05 710.86 341.342 710.91 341.546 710.927C341.26 713.525 340.552 720.944 340.313 719.819Z" fill="#18306D"/>
<path d="M332.317 718.922C331.88 719.009 332.833 712.815 333.21 710.463C333.576 710.469 333.781 710.472 334.196 710.486C333.731 712.93 332.748 718.84 332.317 718.922Z" fill="#18306D"/>
<path d="M355.692 721.762C355.113 723.307 355.892 714.759 355.963 712.318C356.197 712.344 356.55 712.396 356.782 712.419C356.654 714.665 355.795 721.492 355.692 721.762Z" fill="#18306D"/>
<path d="M349.179 711.569C348.783 713.915 347.301 722.212 347.049 720.944C346.862 719.999 347.864 713.812 348.177 711.514C348.46 711.537 348.899 711.543 349.179 711.569Z" fill="#18306D"/>
<path d="M383.186 733.409C383.454 734.09 381.358 755.035 380.005 764.465C379.614 767.175 377.967 767.563 377.776 767.617C376.911 767.857 322.341 762.122 321.621 761.318C321.456 761.134 319.879 760.292 320.122 757.483C320.964 747.839 323.64 727.244 324.253 726.799C326.061 725.485 382.848 732.526 383.186 733.409Z" fill="#BFBFBF"/>
<path d="M372.533 736.639C372.594 736.846 372.354 739.138 372.047 741.773C371.622 745.447 366.853 749.895 361.246 749.353C355.635 748.817 348.589 748.067 342.81 747.372C336.75 746.643 331.876 741.988 332.177 738.783C332.473 735.62 332.942 732.515 333.442 732.254C334.371 731.777 372.386 736.143 372.533 736.639Z" fill="#35A4DA"/>
<path d="M361.338 749.361C361.84 745.823 363.958 740.776 372.047 741.771C371.622 745.447 371.074 749.788 371.043 750.063C371.026 750.215 366.9 749.895 361.338 749.361ZM331.955 745.678C332.09 745.975 336.753 746.641 342.811 747.37C344.123 739.867 336.425 738.271 332.178 738.78C331.88 741.983 331.758 745.247 331.955 745.678Z" fill="#2B3244"/>
<path d="M370.636 718.794C371.021 718.68 371.389 715.732 371.561 714.124C371.163 714.065 370.753 714.011 370.335 713.952C370.284 715.791 370.253 718.905 370.636 718.794Z" fill="#514FC2"/>
<path d="M337.6 710.504C337.33 710.488 337.066 710.473 336.804 710.458C336.515 712.183 335.941 715.841 336.253 715.896C336.55 715.95 337.24 712.442 337.6 710.504Z" fill="#514FC2"/>
<path d="M330.827 710.386C330.517 710.418 330.281 710.461 330.124 710.519C330.11 710.521 330.103 710.529 330.094 710.533C329.867 712.001 329.442 714.841 329.658 714.959C329.87 715.073 330.467 711.993 330.827 710.386Z" fill="#514FC2"/>
<path d="M379.312 715.433C379.209 717.246 379.115 719.786 379.402 719.777C379.663 719.772 379.867 717.462 379.992 715.608C379.805 715.552 379.577 715.494 379.312 715.433Z" fill="#514FC2"/>
<path d="M360.384 717.862C360.81 717.898 361.125 714.491 361.259 712.789C360.98 712.752 360.701 712.717 360.415 712.685C360.24 714.182 359.926 717.822 360.384 717.862Z" fill="#514FC2"/>
<path d="M344.718 711.049C344.527 711.031 344.337 711.018 344.152 711C343.898 712.657 343.474 715.753 343.834 715.788C344.194 715.822 344.526 712.707 344.718 711.049Z" fill="#514FC2"/>
<path d="M353.087 711.866C352.739 711.827 352.39 711.794 352.044 711.758C351.95 713.339 351.77 717.067 352.114 716.934C352.441 716.8 352.886 713.494 353.087 711.866Z" fill="#514FC2"/>
<path d="M309.154 736.591C308.751 739.58 307.895 742.366 306.662 744.881C306.662 744.881 305.062 746.918 305.012 746.956C304.961 746.998 304.311 748.754 304.311 748.754C302.471 751.242 300.202 753.329 297.607 754.921L295.002 755.506C295.002 755.506 295.204 756.136 295.211 756.206C294.978 756.316 294.745 756.42 294.51 756.518L293.773 756.12L293.427 756.95C290.288 758.095 286.84 758.596 283.222 758.314C282.952 758.295 282.693 758.26 282.43 758.233L281.866 757.076L280.985 758.051C277.004 757.45 273.461 756.11 270.437 754.211L270.058 753.391L268.317 752.729C265.175 750.281 262.725 747.186 261.075 743.715L260.787 741.393L260.116 741.406C258.916 738.05 258.428 734.427 258.738 730.753L259.422 729.868L258.903 729.293C258.917 729.184 258.928 729.072 258.945 728.963C259.679 724.926 261.038 721.535 262.84 718.73L264.434 717.894L265.46 715.37C268.037 712.64 271.136 710.716 274.493 709.521C274.664 709.457 277.325 709.325 277.55 709.238C277.77 709.147 277.688 708.617 277.688 708.617C280.438 708.027 283.289 707.871 286.102 708.12L286.874 709.308L288.101 708.362C290.989 708.814 293.796 709.69 296.369 710.942L297.636 712.601L300.758 713.625C303.067 715.375 305.023 717.497 306.456 719.947L306.892 722.238L307.71 722.51C307.83 722.807 307.938 723.108 308.046 723.415C308.041 723.461 307.91 724.446 307.915 724.537C307.923 724.63 308.575 725.266 308.575 725.266C309.313 728.478 309.556 731.58 309.37 734.512C309.346 734.524 308.154 735.262 308.406 735.79C308.639 736.318 309.137 736.584 309.154 736.591Z" fill="#18306D"/>
<path d="M309.361 734.078L306.71 733.804L307.491 724.562C307.701 724.595 308.367 724.805 308.566 724.837C308.411 724.136 308.04 722.981 308.04 722.981L307.633 722.928L307.707 722.079C307.352 721.19 306.93 720.334 306.45 719.516L306.213 722.751L297.447 721.667L298.202 712.794L300.755 713.191C299.401 712.164 297.926 711.268 296.366 710.508C293.743 710.179 290.85 709.817 287.921 709.454C287.982 708.912 288.044 708.407 288.099 707.928C287.433 707.826 286.766 707.743 286.097 707.68L285.94 709.205C283.1 708.852 280.274 708.502 277.683 708.179C276.6 708.411 275.535 708.715 274.493 709.087L275.005 709.166L273.833 718.739L265.041 717.653L265.464 714.933C264.513 715.942 263.638 717.06 262.843 718.291C262.866 718.293 262.889 718.295 262.915 718.301C262.507 721.559 262.042 725.337 261.572 729.129L258.907 728.854C258.837 729.34 258.782 729.828 258.742 730.311C259.513 730.393 260.401 730.489 261.392 730.602C260.941 734.262 260.499 737.865 260.12 740.964C260.398 741.75 260.722 742.52 261.081 743.273L261.2 742.499L270.826 743.328L269.716 752.392L268.327 752.288C269.001 752.812 269.713 753.309 270.452 753.773C270.455 753.735 270.462 753.696 270.466 753.658L281.306 754.582L280.997 757.615C281.472 757.687 281.956 757.748 282.448 757.798C282.538 756.931 282.652 755.895 282.783 754.713L293.508 755.625C293.488 755.939 293.464 756.236 293.444 756.515C293.81 756.381 294.171 756.238 294.53 756.083L294.561 755.718L295.231 755.775C296.055 755.394 296.855 754.965 297.627 754.49L294.685 754.268L295.434 745.455L304.487 746.234L304.331 748.322C305.217 747.118 306.003 745.826 306.682 744.45C306.415 744.44 306.133 744.428 305.835 744.41L306.56 735.803C307.439 735.904 308.467 736.076 309.177 736.157L309.361 734.078ZM270.955 742.134C267.194 741.866 263.855 741.627 261.35 741.446L262.999 730.786C265.622 731.08 268.784 731.441 272.215 731.829L270.955 742.134ZM272.409 730.258L263.229 729.306L264.887 718.581C267.402 718.925 270.417 719.343 273.691 719.793L272.409 730.258ZM281.423 753.279L270.609 752.468C270.948 749.972 271.372 746.864 271.843 743.429L282.336 744.332L281.423 753.279ZM282.48 742.939C278.887 742.694 275.309 742.442 272.007 742.209C272.453 738.97 272.929 735.48 273.414 731.972C276.63 732.341 280.049 732.736 283.482 733.13L282.48 742.939ZM283.658 731.419L273.632 730.383C274.124 726.823 274.618 723.278 275.078 719.984C278.153 720.411 281.419 720.864 284.69 721.32L283.658 731.419ZM284.816 720.105L275.229 718.92C275.74 715.289 276.204 712.01 276.584 709.42L285.765 710.853L284.816 720.105ZM287.717 711.16L296.369 712.511C296.231 714.99 296.044 718.07 295.828 721.467L286.66 720.337C287.054 716.926 287.411 713.787 287.717 711.16ZM286.518 721.576C289.678 722.017 292.803 722.456 295.738 722.871C295.54 725.968 295.321 729.283 295.095 732.604L285.372 731.599C285.757 728.185 286.148 724.777 286.518 721.576ZM285.172 733.323C288.522 733.712 291.846 734.098 294.966 734.457C294.748 737.639 294.531 740.791 294.326 743.728C291.099 743.52 287.592 743.287 284.065 743.046C284.416 739.95 284.793 736.645 285.172 733.323ZM282.905 753.387C283.184 750.85 283.53 747.797 283.905 744.463L294.214 745.353C293.975 748.751 293.759 751.799 293.59 754.191L282.905 753.387ZM297.318 723.094C300.634 723.563 303.645 723.995 306.085 724.357L305.395 733.67L296.495 732.747L297.318 723.094ZM295.554 743.81L296.335 734.617C299.668 735.004 302.713 735.361 305.247 735.654L304.605 744.351C302.207 744.222 299.071 744.032 295.554 743.81Z" fill="#514FC2"/>
</g>
<defs>
<clipPath id="clip0_211_2940">
<rect width="430" height="955" fill="white"/>
</clipPath>
</defs>
</svg>
